mtllib Cube.mtl
o Plane
usemtl Material.001
v -0.8818589448928833 -1.0011834712793826 -0.8818589448928834
v 0.8818589448928833 -1.0011834712793826 -0.8818589448928834
v 0.8818589448928833 -1.0011835483739377 0.8818589448928834
v -0.8818589448928833 -1.0011834712793826 -0.8818589448928834
v 0.8818589448928833 -1.0011835483739377 0.8818589448928834
v -0.8818589448928833 -1.0011835483739377 0.8818589448928834
vn 0 -0.999999999999999 -4.3711386954470286e-8
vn 0 -0.999999999999999 -4.3711386954470286e-8
vn 0 -0.999999999999999 -4.3711386954470286e-8
vn 0 -0.999999999999999 -4.3711386954470286e-8
vn 0 -0.999999999999999 -4.3711386954470286e-8
vn 0 -0.999999999999999 -4.3711386954470286e-8
f 1//1 2//2 3//3
f 4//4 5//5 6//6
o Cube
usemtl Material
v 0.9000004529953003 0.999999463558197 0.8999999761581421
v 0.8999999761581421 0.9999999403953552 -0.8999999761581421
v -0.8999996185302734 1.0000003576278687 -0.8999999761581421
v 0.9000004529953003 0.999999463558197 0.8999999761581421
v -0.8999996185302734 1.0000003576278687 -0.8999999761581421
v -0.8999999165534973 1 0.8999999761581421
v 0.8999999165534973 -1 -0.8999999761581421
v 0.8999993801116943 -1.0000005960464478 0.8999999761581421
v -0.9000003337860107 -0.9999997019767761 0.8999999761581421
v 0.8999999165534973 -1 -0.8999999761581421
v -0.9000003337860107 -0.9999997019767761 0.8999999761581421
v -0.9000000953674316 -0.9999998211860657 -0.8999999761581421
v -1.0000001192092896 -0.8999997973442078 -0.8999999761581421
v -1.0000003576278687 -0.8999996185302734 0.8999999761581421
v -0.9999999403953552 0.8999999761581421 0.8999999761581421
v -1.0000001192092896 -0.8999997973442078 -0.8999999761581421
v -0.9999999403953552 0.8999999761581421 0.8999999761581421
v -0.9999996423721313 0.9000003337860107 -0.8999999761581421
v 0.9000003933906555 0.8999994397163391 1
v -0.8999999165534973 0.8999999761581421 1
v -0.9000003337860107 -0.8999996781349182 1
v 0.9000003933906555 0.8999994397163391 1
v -0.9000003337860107 -0.8999996781349182 1
v 0.8999993801116943 -0.9000005125999451 1
v 1 0.8999999165534973 -0.8999999761581421
v 1.0000004768371582 0.8999994397163391 0.8999999761581421
v 0.999999463558197 -0.9000005125999451 0.8999999761581421
v 1 0.8999999165534973 -0.8999999761581421
v 0.999999463558197 -0.9000005125999451 0.8999999761581421
v 0.9999999403953552 -0.8999999761581421 -0.8999999761581421
v 1 0.8999999165534973 -0.8999999761581421
v 0.8999999761581421 0.8999999165534973 -1
v 0.8999999761581421 0.9999999403953552 -0.8999999761581421
v 0.9999999403953552 -0.8999999761581421 -0.8999999761581421
v 0.8999999165534973 -1 -0.8999999761581421
v 0.8999999761581421 -0.8999999761581421 -1
v -0.9000000953674316 -0.9999998211860657 -0.8999999761581421
v -1.0000001192092896 -0.8999997973442078 -0.8999999761581421
v -0.9000000953674316 -0.8999997973442078 -1
v -0.8999996185302734 1.0000003576278687 -0.8999999761581421
v -0.8999996185302734 0.9000003337860107 -1
v -0.9999996423721313 0.9000003337860107 -0.8999999761581421
v 0.9000004529953003 0.999999463558197 0.8999999761581421
v 0.9000003933906555 0.8999994397163391 1
v 1.0000004768371582 0.8999994397163391 0.8999999761581421
v 0.8999993801116943 -1.0000005960464478 0.8999999761581421
v 0.999999463558197 -0.9000005125999451 0.8999999761581421
v 0.8999993801116943 -0.9000005125999451 1
v -1.0000003576278687 -0.8999996185302734 0.8999999761581421
v -0.9000003337860107 -0.9999997019767761 0.8999999761581421
v -0.9000003337860107 -0.8999996781349182 1
v -0.9999999403953552 0.8999999761581421 0.8999999761581421
v -0.8999999165534973 0.8999999761581421 1
v -0.8999999165534973 1 0.8999999761581421
v 1 0.8999999165534973 -0.8999999761581421
v 0.9999999403953552 -0.8999999761581421 -0.8999999761581421
v 0.8999999761581421 -0.8999999761581421 -1
v 1 0.8999999165534973 -0.8999999761581421
v 0.8999999761581421 -0.8999999761581421 -1
v 0.8999999761581421 0.8999999165534973 -1
v 0.8999999761581421 0.8999999165534973 -1
v -0.8999996185302734 0.9000003337860107 -1
v -0.8999996185302734 1.0000003576278687 -0.8999999761581421
v 0.8999999761581421 0.8999999165534973 -1
v -0.8999996185302734 1.0000003576278687 -0.8999999761581421
v 0.8999999761581421 0.9999999403953552 -0.8999999761581421
v 0.8999999761581421 0.9999999403953552 -0.8999999761581421
v 0.9000004529953003 0.999999463558197 0.8999999761581421
v 1.0000004768371582 0.8999994397163391 0.8999999761581421
v 0.8999999761581421 0.9999999403953552 -0.8999999761581421
v 1.0000004768371582 0.8999994397163391 0.8999999761581421
v 1 0.8999999165534973 -0.8999999761581421
v 0.8999999165534973 -1 -0.8999999761581421
v -0.9000000953674316 -0.9999998211860657 -0.8999999761581421
v -0.9000000953674316 -0.8999997973442078 -1
v 0.8999999165534973 -1 -0.8999999761581421
v -0.9000000953674316 -0.8999997973442078 -1
v 0.8999999761581421 -0.8999999761581421 -1
v 0.9999999403953552 -0.8999999761581421 -0.8999999761581421
v 0.999999463558197 -0.9000005125999451 0.8999999761581421
v 0.8999993801116943 -1.0000005960464478 0.8999999761581421
v 0.9999999403953552 -0.8999999761581421 -0.8999999761581421
v 0.8999993801116943 -1.0000005960464478 0.8999999761581421
v 0.8999999165534973 -1 -0.8999999761581421
v -1.0000001192092896 -0.8999997973442078 -0.8999999761581421
v -0.9999996423721313 0.9000003337860107 -0.8999999761581421
v -0.8999996185302734 0.9000003337860107 -1
v -1.0000001192092896 -0.8999997973442078 -0.8999999761581421
v -0.8999996185302734 0.9000003337860107 -1
v -0.9000000953674316 -0.8999997973442078 -1
v -0.9000000953674316 -0.9999998211860657 -0.8999999761581421
v -0.9000003337860107 -0.9999997019767761 0.8999999761581421
v -1.0000003576278687 -0.8999996185302734 0.8999999761581421
v -0.9000000953674316 -0.9999998211860657 -0.8999999761581421
v -1.0000003576278687 -0.8999996185302734 0.8999999761581421
v -1.0000001192092896 -0.8999997973442078 -0.8999999761581421
v -0.9999996423721313 0.9000003337860107 -0.8999999761581421
v -0.9999999403953552 0.8999999761581421 0.8999999761581421
v -0.8999999165534973 1 0.8999999761581421
v -0.9999996423721313 0.9000003337860107 -0.8999999761581421
v -0.8999999165534973 1 0.8999999761581421
v -0.8999996185302734 1.0000003576278687 -0.8999999761581421
v 0.9000003933906555 0.8999994397163391 1
v 0.8999993801116943 -0.9000005125999451 1
v 0.999999463558197 -0.9000005125999451 0.8999999761581421
v 0.9000003933906555 0.8999994397163391 1
v 0.999999463558197 -0.9000005125999451 0.8999999761581421
v 1.0000004768371582 0.8999994397163391 0.8999999761581421
v 0.9000004529953003 0.999999463558197 0.8999999761581421
v -0.8999999165534973 1 0.8999999761581421
v -0.8999999165534973 0.8999999761581421 1
v 0.9000004529953003 0.999999463558197 0.8999999761581421
v -0.8999999165534973 0.8999999761581421 1
v 0.9000003933906555 0.8999994397163391 1
v 0.8999993801116943 -0.9000005125999451 1
v -0.9000003337860107 -0.8999996781349182 1
v -0.9000003337860107 -0.9999997019767761 0.8999999761581421
v 0.8999993801116943 -0.9000005125999451 1
v -0.9000003337860107 -0.9999997019767761 0.8999999761581421
v 0.8999993801116943 -1.0000005960464478 0.8999999761581421
v -0.9000003337860107 -0.8999996781349182 1
v -0.8999999165534973 0.8999999761581421 1
v -0.9999999403953552 0.8999999761581421 0.8999999761581421
v -0.9000003337860107 -0.8999996781349182 1
v -0.9999999403953552 0.8999999761581421 0.8999999761581421
v -1.0000003576278687 -0.8999996185302734 0.8999999761581421
v 0.8999999761581421 0.8999999165534973 -1
v 0.8999999761581421 -0.8999999761581421 -1
v -0.9000000953674316 -0.8999997973442078 -1
v 0.8999999761581421 0.8999999165534973 -1
v -0.9000000953674316 -0.8999997973442078 -1
v -0.8999996185302734 0.9000003337860107 -1
vn 0.3415692872546882 0.8755917107925638 0.3415692872546882
vn 0.3415692872546882 0.8755917107925638 -0.3415692872546882
vn -0.3415692872546882 0.8755917107925638 -0.3415692872546882
vn 0.3415692872546882 0.8755917107925638 0.3415692872546882
vn -0.3415692872546882 0.8755917107925638 -0.3415692872546882
vn -0.3415692872546882 0.8755917107925638 0.3415692872546882
vn 0.3415692872546882 -0.8755917107925638 -0.3415692872546882
vn 0.3415692872546882 -0.8755917107925638 0.3415692872546882
vn -0.3415692872546882 -0.8755917107925638 0.3415692872546882
vn 0.3415692872546882 -0.8755917107925638 -0.3415692872546882
vn -0.3415692872546882 -0.8755917107925638 0.3415692872546882
vn -0.3415692872546882 -0.8755917107925638 -0.3415692872546882
vn -0.8755917107925638 -0.3415692872546882 -0.3415692872546882
vn -0.8755917107925638 -0.3415692872546882 0.3415692872546882
vn -0.8755917107925638 0.3415692872546882 0.3415692872546882
vn -0.8755917107925638 -0.3415692872546882 -0.3415692872546882
vn -0.8755917107925638 0.3415692872546882 0.3415692872546882
vn -0.8755917107925638 0.3415692872546882 -0.3415692872546882
vn 0.3415692872546882 0.3415692872546882 0.8755917107925638
vn -0.3415692872546882 0.3415692872546882 0.8755917107925638
vn -0.3415692872546882 -0.3415692872546882 0.8755917107925638
vn 0.3415692872546882 0.3415692872546882 0.8755917107925638
vn -0.3415692872546882 -0.3415692872546882 0.8755917107925638
vn 0.3415692872546882 -0.3415692872546882 0.8755917107925638
vn 0.8755917107925638 0.3415692872546882 -0.3415692872546882
vn 0.8755917107925638 0.3415692872546882 0.3415692872546882
vn 0.8755917107925638 -0.3415692872546882 0.3415692872546882
vn 0.8755917107925638 0.3415692872546882 -0.3415692872546882
vn 0.8755917107925638 -0.3415692872546882 0.3415692872546882
vn 0.8755917107925638 -0.3415692872546882 -0.3415692872546882
vn 0.8755917107925638 0.3415692872546882 -0.3415692872546882
vn 0.3415692872546882 0.3415692872546882 -0.8755917107925638
vn 0.3415692872546882 0.8755917107925638 -0.3415692872546882
vn 0.8755917107925638 -0.3415692872546882 -0.3415692872546882
vn 0.3415692872546882 -0.8755917107925638 -0.3415692872546882
vn 0.3415692872546882 -0.3415692872546882 -0.8755917107925638
vn -0.3415692872546882 -0.8755917107925638 -0.3415692872546882
vn -0.8755917107925638 -0.3415692872546882 -0.3415692872546882
vn -0.3415692872546882 -0.3415692872546882 -0.8755917107925638
vn -0.3415692872546882 0.8755917107925638 -0.3415692872546882
vn -0.3415692872546882 0.3415692872546882 -0.8755917107925638
vn -0.8755917107925638 0.3415692872546882 -0.3415692872546882
vn 0.3415692872546882 0.8755917107925638 0.3415692872546882
vn 0.3415692872546882 0.3415692872546882 0.8755917107925638
vn 0.8755917107925638 0.3415692872546882 0.3415692872546882
vn 0.3415692872546882 -0.8755917107925638 0.3415692872546882
vn 0.8755917107925638 -0.3415692872546882 0.3415692872546882
vn 0.3415692872546882 -0.3415692872546882 0.8755917107925638
vn -0.8755917107925638 -0.3415692872546882 0.3415692872546882
vn -0.3415692872546882 -0.8755917107925638 0.3415692872546882
vn -0.3415692872546882 -0.3415692872546882 0.8755917107925638
vn -0.8755917107925638 0.3415692872546882 0.3415692872546882
vn -0.3415692872546882 0.3415692872546882 0.8755917107925638
vn -0.3415692872546882 0.8755917107925638 0.3415692872546882
vn 0.8755917107925638 0.3415692872546882 -0.3415692872546882
vn 0.8755917107925638 -0.3415692872546882 -0.3415692872546882
vn 0.3415692872546882 -0.3415692872546882 -0.8755917107925638
vn 0.8755917107925638 0.3415692872546882 -0.3415692872546882
vn 0.3415692872546882 -0.3415692872546882 -0.8755917107925638
vn 0.3415692872546882 0.3415692872546882 -0.8755917107925638
vn 0.3415692872546882 0.3415692872546882 -0.8755917107925638
vn -0.3415692872546882 0.3415692872546882 -0.8755917107925638
vn -0.3415692872546882 0.8755917107925638 -0.3415692872546882
vn 0.3415692872546882 0.3415692872546882 -0.8755917107925638
vn -0.3415692872546882 0.8755917107925638 -0.3415692872546882
vn 0.3415692872546882 0.8755917107925638 -0.3415692872546882
vn 0.3415692872546882 0.8755917107925638 -0.3415692872546882
vn 0.3415692872546882 0.8755917107925638 0.3415692872546882
vn 0.8755917107925638 0.3415692872546882 0.3415692872546882
vn 0.3415692872546882 0.8755917107925638 -0.3415692872546882
vn 0.8755917107925638 0.3415692872546882 0.3415692872546882
vn 0.8755917107925638 0.3415692872546882 -0.3415692872546882
vn 0.3415692872546882 -0.8755917107925638 -0.3415692872546882
vn -0.3415692872546882 -0.8755917107925638 -0.3415692872546882
vn -0.3415692872546882 -0.3415692872546882 -0.8755917107925638
vn 0.3415692872546882 -0.8755917107925638 -0.3415692872546882
vn -0.3415692872546882 -0.3415692872546882 -0.8755917107925638
vn 0.3415692872546882 -0.3415692872546882 -0.8755917107925638
vn 0.8755917107925638 -0.3415692872546882 -0.3415692872546882
vn 0.8755917107925638 -0.3415692872546882 0.3415692872546882
vn 0.3415692872546882 -0.8755917107925638 0.3415692872546882
vn 0.8755917107925638 -0.3415692872546882 -0.3415692872546882
vn 0.3415692872546882 -0.8755917107925638 0.3415692872546882
vn 0.3415692872546882 -0.8755917107925638 -0.3415692872546882
vn -0.8755917107925638 -0.3415692872546882 -0.3415692872546882
vn -0.8755917107925638 0.3415692872546882 -0.3415692872546882
vn -0.3415692872546882 0.3415692872546882 -0.8755917107925638
vn -0.8755917107925638 -0.3415692872546882 -0.3415692872546882
vn -0.3415692872546882 0.3415692872546882 -0.8755917107925638
vn -0.3415692872546882 -0.3415692872546882 -0.8755917107925638
vn -0.3415692872546882 -0.8755917107925638 -0.3415692872546882
vn -0.3415692872546882 -0.8755917107925638 0.3415692872546882
vn -0.8755917107925638 -0.3415692872546882 0.3415692872546882
vn -0.3415692872546882 -0.8755917107925638 -0.3415692872546882
vn -0.8755917107925638 -0.3415692872546882 0.3415692872546882
vn -0.8755917107925638 -0.3415692872546882 -0.3415692872546882
vn -0.8755917107925638 0.3415692872546882 -0.3415692872546882
vn -0.8755917107925638 0.3415692872546882 0.3415692872546882
vn -0.3415692872546882 0.8755917107925638 0.3415692872546882
vn -0.8755917107925638 0.3415692872546882 -0.3415692872546882
vn -0.3415692872546882 0.8755917107925638 0.3415692872546882
vn -0.3415692872546882 0.8755917107925638 -0.3415692872546882
vn 0.3415692872546882 0.3415692872546882 0.8755917107925638
vn 0.3415692872546882 -0.3415692872546882 0.8755917107925638
vn 0.8755917107925638 -0.3415692872546882 0.3415692872546882
vn 0.3415692872546882 0.3415692872546882 0.8755917107925638
vn 0.8755917107925638 -0.3415692872546882 0.3415692872546882
vn 0.8755917107925638 0.3415692872546882 0.3415692872546882
vn 0.3415692872546882 0.8755917107925638 0.3415692872546882
vn -0.3415692872546882 0.8755917107925638 0.3415692872546882
vn -0.3415692872546882 0.3415692872546882 0.8755917107925638
vn 0.3415692872546882 0.8755917107925638 0.3415692872546882
vn -0.3415692872546882 0.3415692872546882 0.8755917107925638
vn 0.3415692872546882 0.3415692872546882 0.8755917107925638
vn 0.3415692872546882 -0.3415692872546882 0.8755917107925638
vn -0.3415692872546882 -0.3415692872546882 0.8755917107925638
vn -0.3415692872546882 -0.8755917107925638 0.3415692872546882
vn 0.3415692872546882 -0.3415692872546882 0.8755917107925638
vn -0.3415692872546882 -0.8755917107925638 0.3415692872546882
vn 0.3415692872546882 -0.8755917107925638 0.3415692872546882
vn -0.3415692872546882 -0.3415692872546882 0.8755917107925638
vn -0.3415692872546882 0.3415692872546882 0.8755917107925638
vn -0.8755917107925638 0.3415692872546882 0.3415692872546882
vn -0.3415692872546882 -0.3415692872546882 0.8755917107925638
vn -0.8755917107925638 0.3415692872546882 0.3415692872546882
vn -0.8755917107925638 -0.3415692872546882 0.3415692872546882
vn 0.3415692872546882 0.3415692872546882 -0.8755917107925638
vn 0.3415692872546882 -0.3415692872546882 -0.8755917107925638
vn -0.3415692872546882 -0.3415692872546882 -0.8755917107925638
vn 0.3415692872546882 0.3415692872546882 -0.8755917107925638
vn -0.3415692872546882 -0.3415692872546882 -0.8755917107925638
vn -0.3415692872546882 0.3415692872546882 -0.8755917107925638
f 7//7 8//8 9//9
f 10//10 11//11 12//12
f 13//13 14//14 15//15
f 16//16 17//17 18//18
f 19//19 20//20 21//21
f 22//22 23//23 24//24
f 25//25 26//26 27//27
f 28//28 29//29 30//30
f 31//31 32//32 33//33
f 34//34 35//35 36//36
f 37//37 38//38 39//39
f 40//40 41//41 42//42
f 43//43 44//44 45//45
f 46//46 47//47 48//48
f 49//49 50//50 51//51
f 52//52 53//53 54//54
f 55//55 56//56 57//57
f 58//58 59//59 60//60
f 61//61 62//62 63//63
f 64//64 65//65 66//66
f 67//67 68//68 69//69
f 70//70 71//71 72//72
f 73//73 74//74 75//75
f 76//76 77//77 78//78
f 79//79 80//80 81//81
f 82//82 83//83 84//84
f 85//85 86//86 87//87
f 88//88 89//89 90//90
f 91//91 92//92 93//93
f 94//94 95//95 96//96
f 97//97 98//98 99//99
f 100//100 101//101 102//102
f 103//103 104//104 105//105
f 106//106 107//107 108//108
f 109//109 110//110 111//111
f 112//112 113//113 114//114
f 115//115 116//116 117//117
f 118//118 119//119 120//120
f 121//121 122//122 123//123
f 124//124 125//125 126//126
f 127//127 128//128 129//129
f 130//130 131//131 132//132
f 133//133 134//134 135//135
f 136//136 137//137 138//138
o Plane001
usemtl Material.002
v -0.8818589448928833 0.8683782219886779 1.0031136763613233
v 0.8818589448928833 0.8683782219886779 1.0031136763613233
v 0.8818589448928833 -0.8953396677970885 1.0031131016690722
v -0.8818589448928833 0.8683782219886779 1.0031136763613233
v 0.8818589448928833 -0.8953396677970885 1.0031131016690722
v -0.8818589448928833 -0.8953396677970885 1.0031131016690722
vn 0 3.2584136865023167e-7 -0.9999999999999469
vn 0 3.2584136865023167e-7 -0.9999999999999469
vn 0 3.2584136865023167e-7 -0.9999999999999469
vn 0 3.2584136865023167e-7 -0.9999999999999469
vn 0 3.2584136865023167e-7 -0.9999999999999469
vn 0 3.2584136865023167e-7 -0.9999999999999469
f 139//139 140//140 141//141
f 142//142 143//143 144//144
o Plane002
usemtl Material.003
v -0.8818589448928833 1.0017629127918328 0.895897388458252
v 0.8818589448928833 1.0017629127918328 0.895897388458252
v 0.8818589448928833 1.0017637748302375 -0.8678205013275146
v -0.8818589448928833 1.0017629127918328 0.895897388458252
v 0.8818589448928833 1.0017637748302375 -0.8678205013275146
v -0.8818589448928833 1.0017637748302375 -0.8678205013275146
vn 0 0.9999999999998805 4.88762068928672e-7
vn 0 0.9999999999998805 4.88762068928672e-7
vn 0 0.9999999999998805 4.88762068928672e-7
vn 0 0.9999999999998805 4.88762068928672e-7
vn 0 0.9999999999998805 4.88762068928672e-7
vn 0 0.9999999999998805 4.88762068928672e-7
f 145//145 146//146 147//147
f 148//148 149//149 150//150
o Plane003
usemtl Material.004
v -0.8818589448928833 -0.8677648790180683 -1.0094554210743922
v 0.8818589448928833 -0.8677648790180683 -1.0094554210743922
v 0.8818589448928833 0.8959530107676983 -1.00945427168989
v -0.8818589448928833 -0.8677648790180683 -1.0094554210743922
v 0.8818589448928833 0.8959530107676983 -1.00945427168989
v -0.8818589448928833 0.8959530107676983 -1.00945427168989
vn 0 -6.516827373003594e-7 0.9999999999997877
vn 0 -6.516827373003594e-7 0.9999999999997877
vn 0 -6.516827373003594e-7 0.9999999999997877
vn 0 -6.516827373003594e-7 0.9999999999997877
vn 0 -6.516827373003594e-7 0.9999999999997877
vn 0 -6.516827373003594e-7 0.9999999999997877
f 151//151 152//152 153//153
f 154//154 155//155 156//156
o Plane004
usemtl Material.005
v 1.0056033874310304 -0.8677648790180683 0.8676057979464097
v 1.0056035205880318 -0.8677648790180683 -0.8961120918393569
v 1.005604669972534 0.8959530107676983 -0.8961120918392701
v 1.0056033874310304 -0.8677648790180683 0.8676057979464097
v 1.005604669972534 0.8959530107676983 -0.8961120918392701
v 1.0056045368155326 0.8959530107676983 0.8676057979464965
vn 0.9999999999997847 -6.516827373003576e-7 7.549790248527262e-8
vn 0.9999999999997847 -6.516827373003576e-7 7.549790248527262e-8
vn 0.9999999999997847 -6.516827373003576e-7 7.549790248527262e-8
vn 0.9999999999997847 -6.516827373003576e-7 7.549790248527262e-8
vn 0.9999999999997847 -6.516827373003576e-7 7.549790248527262e-8
vn 0.9999999999997847 -6.516827373003576e-7 7.549790248527262e-8
f 157//157 158//158 159//159
f 160//160 161//161 162//162
o Plane005
usemtl Material.006
v -1.0041155075274657 -0.8677648790180683 0.8676057979464097
v -1.0041153743704643 -0.8677648790180683 -0.8961120918393569
v -1.004114224985962 0.8959530107676983 -0.8961120918392701
v -1.0041155075274657 -0.8677648790180683 0.8676057979464097
v -1.004114224985962 0.8959530107676983 -0.8961120918392701
v -1.0041143581429635 0.8959530107676983 0.8676057979464965
vn 0.9999999999997847 -6.516827373003576e-7 7.549790248527262e-8
vn 0.9999999999997847 -6.516827373003576e-7 7.549790248527262e-8
vn 0.9999999999997847 -6.516827373003576e-7 7.549790248527262e-8
vn 0.9999999999997847 -6.516827373003576e-7 7.549790248527262e-8
vn 0.9999999999997847 -6.516827373003576e-7 7.549790248527262e-8
vn 0.9999999999997847 -6.516827373003576e-7 7.549790248527262e-8
f 163//163 164//164 165//165
f 166//166 167//167 168//168
